<?xml version="1.0" encoding="UTF-8"?>
<svg viewBox="0 0 128 128" xmlns="http://www.w3.org/2000/svg">
 <g transform="matrix(1.25 0 0 -1.25 -538.6 808.93)">
  <g transform="matrix(.98793 0 0 .98793 5.4877 9.0059)" stroke="#000">
   <g transform="matrix(.75498 -.6159 .6159 .75498 -247.3 445.78)">
    <path d="m482.24 647.19 8.6337-51.265v-12.816l-6.6103-0.1885c0.32395 5.9637-6.1505 10.727-10.657 9.8007 0.05508 9.6122 0 35.245 0 44.857-0.21343 6.5432 3.1432 9.5451 8.6337 9.6122z" fill="#fff" fill-rule="evenodd" stroke-width="1.5183"/>
    <path d="m490.86 582.71 0.00873-8.9643c1.4799 2.0329 6.2889 3.3954 9.486 3.3986 8.806 0.00856 15.957-7.1525 15.966-15.959 0.00857-8.805-7.1284-15.982-15.934-15.99-8.5137-0.0083-15.503 6.6834-15.965 15.084l-0.025-2e-5 -8.5e-4 0.875-0.02098 21.55 6.4857 0.00631zm9.502-12.991c-4.711-0.00459-8.5463-3.8473-8.5417-8.5583s3.8473-8.5463 8.5583-8.5417 8.5213 3.8493 8.5167 8.5583-3.8223 8.5463-8.5333 8.5417z" stroke-width="1.6"/>
   </g>
   <g transform="matrix(.098349 -.96936 .96936 .098349 -142.37 1009.4)">
    <path d="m482.23 647.19-8.6337-51.265v-12.816l6.3186-0.18689c-0.18335 5.3097 5.3632 9.8729 10.854 8.8637-0.05508 9.6122 0.09491 36.18 0.09491 45.792 0.21343 6.5432-3.1432 9.5451-8.6337 9.6122z" fill="#fff" fill-rule="evenodd" stroke-width="1.5183"/>
    <path d="m473.59 582.86-0.00873-8.9643c-1.4799 2.0329-6.2889 3.3954-9.486 3.3986-8.806 0.00856-15.957-7.1525-15.966-15.959-0.00857-8.805 7.1284-15.982 15.934-15.99 8.5137-0.0083 15.503 6.6834 15.965 15.084l0.025-2e-5 8.5e-4 0.875-0.19744 21.467-6.2673 0.08916zm-9.502-12.991c4.711-0.00459 8.5463-3.8473 8.5417-8.5583s-3.8473-8.5463-8.5583-8.5417-8.5213 3.8493-8.5167 8.5583 3.8223 8.5463 8.5333 8.5417z" stroke-width="1.6"/>
   </g>
   <path d="m483.14 597.79c-1.5998 1.3051-1.8382 3.661-0.53306 5.2608s3.6603 1.8388 5.2601 0.53367 1.8388-3.6603 0.53367-5.2601-3.6609-1.8395-5.2607-0.53443" stroke-width=".97434"/>
  </g>
 </g>
</svg>
