<?xml version="1.0" encoding="utf-8"?>
<!-- Generator: Adobe Illustrator 23.0.6, SVG Export Plug-In . SVG Version: 6.00 Build 0)  -->
<svg version="1.1" id="Layer_1" xmlns="http://www.w3.org/2000/svg" xmlns:xlink="http://www.w3.org/1999/xlink" x="0px" y="0px"
	 viewBox="0 0 1080 1920" style="enable-background:new 0 0 1080 1920;" xml:space="preserve">
<g>
	<g>
		<path d="M505,505.12c43.62-30.61,106.24-68.86,154.79-24.96c21.75,19.67,22.5,48.4,6.63,72.11
			c-15.95,23.83-41.26,42.07-63.45,59.69c-93.84,74.55-201.12,132.21-315.07,169.33c-11.56,3.77-40.35,17.87-45.15-0.12
			c-3.35-12.54,6.32-26.05,12.76-35.8c16.08-24.34,33.62-47.72,52.48-69.98c36.87-43.51,78.72-82.83,124.52-116.84
			c22.75-16.9,46.47-32.5,71.02-46.68c24.02-13.87,51.22-27.55,79.73-26.5c30.8,1.14,51.49,24.27,54.79,53.96
			c2.94,26.47-5.57,52.95-18.26,75.89c-28.72,51.91-80.17,86.39-134.7,106.66c-29.23,10.86-59.66,18.18-90.27,23.95
			c-26.03,4.91-53.08,8.4-79.51,4.54c-25.86-3.78-50.03-15.75-63.79-38.78c-14.89-24.93-16.26-55.79-16.61-84.07
			c-0.69-55.79,8.03-111.56,25.06-164.67c16.89-52.69,41.96-102.74,74.16-147.74c16.45-23,34.81-44.65,54.85-64.6
			c18.79-18.71,53.61-54.72,78.85-25.22c16.83,19.67,17.31,51.84,14.53,76.18c-3.16,27.63-13.42,54.19-27.91,77.81
			c-30.95,50.49-79.97,85.08-134.25,106.9c-27.57,11.08-56.27,19.12-85.26,25.51c-14.32,3.16-28.74,5.91-43.19,8.42
			c-12.08,2.1-31.42,8.64-42.77,1.22c-24.34-15.91,30.71-62.95,43.02-73.64c20.57-17.86,43.45-33.05,67.81-45.24
			c48.7-24.38,103.48-36.85,157.97-34.66c42.19,1.7,109.12,17.7,114.98,69.1c3.54,31.03-20.63,56.18-41.48,75.73
			c-20.69,19.41-43.72,36.29-68.36,50.34c-50.08,28.57-106.91,45.5-164.56,48.13c-16.37,0.75-33.68,0.94-48.61-6.77
			c-10.78-5.58-18.83-15.03-24.32-25.7c-11.58-22.52-12.77-49.14-12.38-73.96c0.91-57.67,13.41-121.92,64.29-156.64
			c22.27-15.2,50.94-23.49,77.55-15.96c23.25,6.58,42.16,26.12,50.02,48.71c8.95,25.72,0.79,51.89-21.3,67.97
			c-21.21,15.44-48.94,20.55-74.67,17.89c-54.31-5.62-100.73-43.7-123.23-92.38c-24.16-52.27-24.85-115.17-10.2-170.21
			c13.02-48.89,47.81-98.53,104.58-90.7c47.1,6.5,86.99,47.53,85.99,96.01c-1.07,51.9-43.32,99.62-93.55,110.3
			c-17.56,3.73-33.77-0.25-42.45-17c-7.83-15.12-5.34-32.32,1.54-47.29c10.61-23.1,29.15-43.49,48.12-60.11
			c74.05-64.9,181.96-80.02,276.13-61.84c49.52,9.56,100.11,28.29,137.91,62.68c18.8,17.1,33.93,38.49,40.46,63.29
			c7.42,28.16,2.65,57.82-10.15,83.68c-26.95,54.4-82.14,84.06-138.36,100.11c-13.86,3.96-27.91,7.28-42.05,10.08
			c-15.1,2.99-34.31,4.78-42.54-11.51c-11.11-21.98,3.52-53.56,11.79-74.28c38.19-95.75,115.94-175.09,210.72-215.54
			c46.84-19.99,118.83-41.69,156.26,6.58c37.28,48.08,11.02,111.07-26.51,149.62c-20.45,21-44.63,38.52-70.46,52.32
			c-25.11,13.42-53.5,24.98-81.8,29.39c-8.77,1.36-18.7,0.42-23.76-7.83c-3.82-6.22-3.29-14.34-1.81-21.17
			c2.83-13.06,10.95-24.35,19.15-34.59c17.05-21.3,39.27-38.51,64.05-49.88c27.7-12.71,62.83-21.14,90.55-4.17
			c22.25,13.61,35.18,39.49,38.19,64.83c6.99,58.91-36.28,114.42-70.95,157.56c-35.73,44.45-76.89,84.53-122.23,119.11
			c-22.53,17.18-46.11,33-70.55,47.34c-12.44,7.3-25.09,14.33-38.02,20.73c-14.64,7.25-36.29,14.24-47.26-2.65
			c-13.61-20.95,0.76-50.1,12.19-68.49c12.81-20.61,29.9-38.31,49.42-52.65c38.92-28.59,86.45-44.17,133.93-50.7
			c54.08-7.43,115.66-6.18,165.76,17.45c48.22,22.73,91.36,79.94,66.05,134.46c-11.03,23.75-34.07,43.65-61.08,44.73
			c-24.7,0.99-45.93-14.1-58.44-34.54c-12.28-20.07-17.27-45.14-12.75-68.3c5.44-27.83,21.75-52.36,41-72.63
			c19.63-20.67,43.09-40.11,68.11-53.86c15.04-8.26,32.66-14.59,50.03-11.24c14.21,2.74,25.88,11.56,34.49,22.91
			c17.39,22.92,24.26,53.93,25.8,82.15c1.59,29.03-3.17,58.37-13.97,85.37c-21.12,52.85-66.49,94.46-120.36,112.38
			c-28.44,9.46-63.36,15.2-89.76-2.65c-24.41-16.51-36.43-45.87-36.81-74.63c-0.75-57.34,34.17-115.05,74.02-154.03
			c9.91-9.69,20.56-18.62,31.87-26.64c11.57-8.2,24.48-17.21,38.03-21.71c35-11.62,52.74,33.67,55.42,60.77
			c5.76,58.2-29.26,113.59-62.1,158.51c-33.27,45.52-72.22,87.47-117.6,121.12c-42.26,31.34-93.35,59.83-146.46,65.67
			c-24.72,2.72-51.75-0.06-72.22-15.37c-20.98-15.69-29.63-41.15-26.97-66.67c5.01-48.07,44.01-93.04,93.65-96.18
			c23.05-1.46,47.31,8.55,52.49,33.28c6.32,30.17-15.94,59.81-34.43,81.28c-35.08,40.73-81.59,69.77-130.99,90.04
			c-24.74,10.16-50.36,18.17-76.31,24.58c-27.93,6.9-58.75,15.22-87.67,12.7c-15.96-1.39-31.25-6.8-42.21-18.91
			c-9.86-10.9-16.35-27.73-9.43-41.87c9.05-18.48,45.33-23.5,49.97,0.96c2.75,14.47-10.52,26.07-22.32,31.44
			c-12.77,5.81-26.58,5.57-39.99,2.24c-25.84-6.43-47.04-24.49-62.8-45.36c-15.97-21.15-27.32-45.77-34.34-71.26
			c-7.56-27.41-10.46-57.98,0.25-84.98c8.96-22.59,27.46-38.39,51.42-43c20.81-4.01,45.23,1.08,56.56,20.64
			c7.52,12.99,5.91,28.1-8.4,34.95c-12.24,5.86-26.74,3.52-36.47-5.85c-19.28-18.57-19.11-51.43-14.3-75.82
			c9.78-49.62,46.33-91.36,91.04-113.46c46.98-23.23,100.92-21.83,147.24,2.36c44.5,23.25,79.38,64.34,96.27,111.51
			c7.78,21.73,15.32,49.09,6.66,71.6c-4.63,12.03-17.24,21.94-30.14,14.46c-10.35-6-13.74-20.14-14.58-31.19
			c-1.82-23.96,7.78-50.2,17.22-71.85c9.91-22.72,23.15-43.99,38.98-63.05c32.2-38.76,75.21-68.9,123.27-84.4
			c24.41-7.87,50.56-12.56,76.26-11.12c15.1,0.85,30.38,4.05,43.79,11.28c12.75,6.88,31,21.28,24.91,37.87
			c-4.95,13.47-19.52,11.33-26,0.45c-3.93-6.6-6.02-14.88-6.86-22.47c-1.51-13.59,1.2-27.24,6.04-39.93
			c10.57-27.7,30.34-50.83,50.21-72.32c42-45.42,87.09-87.92,134.76-127.34c0.62-0.51,0.54-1.6,0-2.12
			c-40.56-39.58-104.13-48.28-153-18.95c-51.69,31.03-69.5,90.09-59.38,147.37c11.9,67.36,54.64,122.03,86.35,180.86
			c24.84,46.08,50.55,114.76,13.72,162.04c-21.47,27.55-61.12,33.44-93.74,36.61c-18.26,1.77-36.66,1.98-54.95,0.6
			c-16.98-1.28-34.87-3.13-51.06-8.78c-12.71-4.44-27.7-12.79-30.22-27.34c-3.42-19.79,16.88-33.08,32.87-38.77
			c32.07-11.41,68.49-2.75,96.42,15.11c28.15,18,49.58,44.73,67.59,72.46c18.83,29,35.05,61.92,34.21,97.33
			c-0.83,34.57-17.44,67.1-37.26,94.62c-18,25-40.39,46.89-65.6,64.57c-24.58,17.23-51.97,30.65-80.84,38.97
			c-6.31,1.82-12.88,3.33-19.49,2.68c-4.12-0.41-8.58-1.69-11.43-4.9c-5.47-6.14-2.72-14.88,0.43-21.31
			c7-14.28,17.64-27.56,28.27-39.25c21.31-23.43,48-43.13,77.57-54.79c27.02-10.65,59.75-15.16,86.89-2.52
			c30.57,14.23,42.1,47.05,48.73,77.8c6.82,31.64,9.39,64.22,7.45,96.53c-3.9,64.88-26.49,129.53-69.78,178.71
			c-39.01,44.31-93.35,76.01-152.05,84.59c-15.01,2.19-30.48,3.02-45.62,1.76c-13.16-1.1-32.48-5.82-35.63-20.99
			c-3.7-17.84,17.64-30.31,31.35-36.04c12.64-5.28,26.34-7.62,40.02-7.38c27.42,0.48,54.74,11.08,75.49,28.98
			c22.94,19.79,36.32,48.5,40.07,78.31c8.07,64.2-25.69,123.78-77.04,160.32c-24.68,17.56-52.8,30.34-82.01,38.21
			c-33.28,8.97-75.99,10.09-96.1-23.51c-19.54-32.65,9.55-62.37,39.73-72.3c23.86-7.85,52.08-5.9,74.19,6.29
			c25.27,13.93,36.73,41.67,26.34,69.18c-11.77,31.14-42.14,51.62-69.37,68.16c-55.53,33.73-117.86,58.09-164.62,104.6
			c-19.54,19.43-35.41,42.15-44.82,68.15c0.98,0.13,1.96,0.27,2.95,0.4c-0.23-21.93-21.09-39.09-42.63-35.34
			c-1.3,0.23-1.42,2.15-0.36,2.74c17.07,9.54,30.91,22.96,40.95,39.73c0.57,0.95,2.04,1,2.59,0c9.83-17.71,28.19-28.47,48.44-28.38
			c1.93,0.01,1.93-2.99,0-3c-21.29-0.09-40.7,11.26-51.03,29.87c0.86,0,1.73,0,2.59,0c-10.29-17.18-24.55-31.04-42.03-40.81
			c-0.12,0.91-0.24,1.83-0.36,2.74c19.64-3.42,38.62,12.6,38.83,32.45c0.02,1.76,2.38,1.95,2.95,0.4
			c31.47-86.97,124.89-122.4,198.45-165.24c31.67-18.45,68.83-41.34,81.23-78.09c10.04-29.77-4.82-58.74-32.27-72.04
			c-26.62-12.9-59.53-12.47-85.9,0.74c-14.18,7.1-27.63,18.31-32.99,33.7c-5.19,14.9-1.13,30.73,8.26,43
			c25.81,33.73,72.57,27.27,108.08,15.82c35.31-11.38,68.75-29.82,95.57-55.63c53.11-51.11,75.9-139.68,30.19-203.23
			c-18.87-26.23-49.15-43.53-81-48.05c-15.55-2.21-31.61-1.36-46.66,3.25c-14.26,4.37-30.67,12.32-38.59,25.6
			c-7.03,11.79-3.42,24.96,7.93,32.31c12.87,8.33,29.48,8.76,44.28,8.58c37.42-0.45,74.35-10.78,107.36-28.22
			c69.93-36.94,118.06-103.56,136.94-179.77c10.05-40.57,12.16-83.06,7.16-124.52c-4.27-35.45-11.31-79.6-40.74-103.58
			c-27.04-22.03-65.42-20.38-96.82-9.84c-36.45,12.24-69.29,37.1-93.52,66.67c-5.38,6.57-10.41,13.43-15.01,20.57
			c-4.71,7.31-10.58,15.84-10.48,24.92c0.16,14.32,14.65,17.81,26.38,16.4c17.04-2.05,34.36-9.75,49.83-16.89
			c17.99-8.31,35.09-18.56,50.93-30.47c30.35-22.84,56.38-51.8,74.94-85c20.79-37.18,28.06-77.8,13.6-118.58
			c-13.59-38.34-39.33-76.09-68.74-104.11c-27.82-26.51-65-45.09-104.28-40.93c-17.05,1.81-35.5,7.97-47.31,21
			c-9.68,10.68-12.15,25.77-3.32,37.76c8.79,11.93,24.45,17.8,38.39,20.94c22.45,5.05,45.94,6.9,68.92,6.58
			c22.71-0.31,45.5-2.98,67.62-8.19c18-4.24,35.78-10.92,49.1-24.22c23.11-23.08,27.03-58.16,22.78-89.08
			c-5.3-38.53-23.91-73.12-43.3-106.25c-23.11-39.48-49.12-78-63.85-121.66c-14.54-43.09-18.91-92.97,4.32-133.94
			c20-35.28,57.78-59.87,98.4-62.51c21.47-1.39,43.26,2.99,62.62,12.35c9.67,4.68,18.78,10.59,26.9,17.64
			c5.27,4.58,3.65,5.34-1.54,9.69c-4.99,4.18-9.95,8.39-14.89,12.64c-36.17,31.16-70.72,64.2-103.47,98.94
			c-27.17,28.82-57.97,61.37-65.15,101.9c-2.84,16.02-1.67,37.02,9.27,50.11c8.82,10.55,23.37,8.13,28.53-4.73
			c5.78-14.41-6.29-28.18-17.09-36.09c-14.2-10.41-31.53-15.37-48.88-17.03c-35.91-3.43-73.42,5.48-106.21,19.76
			c-64.36,28.03-117.27,81.94-143.46,147.12c-10.51,26.16-24.2,64.83-7.19,91.28c6.22,9.68,17.82,14.48,28.75,9.58
			c11.43-5.12,16.06-18.7,17.59-30.18c4.27-31.98-10.34-68.27-26.23-95.31c-17.61-29.96-42.7-55.78-72.67-73.46
			c-29.01-17.11-62.93-26.6-96.72-24.26c-34.1,2.36-66.93,16.09-93.71,37.12c-27.01,21.22-48.37,50.35-57.95,83.53
			c-8.24,28.54-10.88,70.64,14.02,92.12c17.83,15.38,57.03,7.58,52.68-21.12c-4.27-28.23-35.49-39.45-60.48-36
			c-31.05,4.28-53.27,26.18-61.26,56.06c-9.76,36.48,0.26,77,15.52,110.54c14.14,31.08,36.2,61.51,67.34,77.22
			c25.49,12.86,66.32,16.22,82.56-13.15c5.46-9.87,4.19-22.95-4.87-30.27c-8.59-6.94-21.24-6.75-31.07-2.8
			c-30.75,12.37-20.49,50.37,0.76,66.79c31.59,24.41,79.67,10.73,114.79,2.67c37.17-8.52,73.73-20.23,108.28-36.47
			c34.59-16.27,67.21-37.29,94.61-64.07c24.49-23.93,56.95-60.08,52.27-97.16c-3.7-29.3-31.32-42.09-58.25-39.71
			c-31.05,2.75-57.59,20.64-74.81,46.16c-17.5,25.93-26.84,60.99-15.1,91.13c11.89,30.52,42.43,45.69,73.72,47.47
			c36.91,2.1,73.08-10.8,105.83-26.62c35.02-16.92,67.26-39.22,96.48-64.8c30.25-26.48,57.27-56.54,81.49-88.58
			c24.63-32.59,47.85-67.4,60.79-106.46c11.65-35.19,14.45-77.57-7.97-109.37c-9.4-13.34-23.51-22.06-40.11-17.69
			c-18.11,4.77-35.59,18.03-50.19,29.3c-29.5,22.76-54.24,51.68-72.06,84.42c-19.22,35.32-33.87,78.74-23.13,118.98
			c9.37,35.12,37.56,61.56,74.69,62.55c37.82,1.01,77.03-15.38,107.18-37.31c64.85-47.16,95.28-130.77,76.13-208.72
			c-7.83-31.87-26.31-69.36-63.28-72.35c-20.41-1.65-40.13,7.99-56.8,18.76c-16.75,10.83-32.69,23.55-47.23,37.18
			c-25.86,24.23-49.49,55.5-53.72,91.75c-3.52,30.19,7.71,63.81,31.15,83.75c23.97,20.39,57.31,20.45,82.18,1.5
			c26.66-20.31,38.3-54.51,30.8-86.94c-19.03-82.26-113.45-104.52-186.07-104.86c-68.1-0.32-140.56,16.36-194.96,59.1
			c-24.61,19.34-47.31,45.72-57.88,75.61c-4.56,12.89-6.8,28.9-0.8,41.71c6.82,14.56,22.69,17.87,37.17,13.77
			c19.43-5.5,38.07-17.87,55.33-28.04c17.79-10.49,35.12-21.76,51.92-33.77c33.32-23.82,64.58-50.51,93.3-79.7
			c29.1-29.57,55.74-61.71,79.07-96.02c22.1-32.5,42.99-70.95,40.13-111.58c-2.21-31.33-19.19-64.48-49.42-76.94
			c-35.5-14.63-79.03,2.68-108.98,22.74c-15.43,10.33-29.27,23.02-40.82,37.57c-9.67,12.19-18.93,25.9-20.14,41.88
			c-3.33,43.84,56.62,20.08,77.8,11.97c37.38-14.31,72.36-35.93,101.16-63.82c26.62-25.78,49.09-59.59,50.25-97.74
			c1.02-33.73-14.69-68.37-46.45-82.88c-34.02-15.53-74.17-6.35-107.85,5.33c-69.66,24.15-131.65,69.1-177.73,126.5
			c-22.93,28.55-41.98,60.18-56.15,93.95c-6.78,16.15-13.56,33.24-16.63,50.54c-2.35,13.22-2.56,29.37,7.75,39.5
			c12.03,11.81,30.41,7.93,45.11,4.86c20.92-4.37,41.69-9.68,61.81-16.91c38.29-13.76,74.65-34.95,99.7-67.67
			c22.39-29.25,35.41-66.72,28.68-103.63c-6.18-33.89-27.99-62.03-54.7-82.77c-55.39-43-130.42-60.41-199.48-60.91
			c-69.22-0.51-140.64,17.55-195.96,60.48c-25.8,20.03-53.6,48.06-63.75,79.88c-5.11,16-3.89,34.01,6.9,47.46
			c11.1,13.83,27.44,14.73,43.7,10.82c62.74-15.09,113.75-88.62,85.65-151.75c-25.11-56.42-103.2-81.88-150.55-37.47
			c-26.71,25.06-38.36,62.68-43.93,97.86c-6.34,40.05-5.4,81.95,6.83,120.84c21.33,67.83,85.19,125.61,159.91,118.28
			c31.22-3.06,67.35-19.53,76.12-52.42c7.57-28.37-7.66-59.06-30.23-76.12c-27.52-20.8-64.56-17.88-93.7-1.95
			c-33.2,18.15-54.54,50.31-65.2,85.97c-11,36.8-14.04,79.28-8.78,117.34c4.45,32.18,19.57,64.21,54.59,70.35
			c19.59,3.43,40.69,1.19,60.28-1.29c19.92-2.52,39.63-6.67,58.88-12.4c39.26-11.69,76.65-29.85,110.02-53.62
			c15.96-11.37,31.03-24,44.94-37.81c13.15-13.05,26.13-27.71,32.23-45.54c10.72-31.28-6.94-59.43-33.28-75.63
			c-30.08-18.51-65.94-22.75-100.59-22.03c-37.82,0.79-75.44,8.45-110.73,22.03c-35.43,13.64-68.54,33.27-97.32,58.04
			c-14.9,12.82-28.95,27.05-40.95,42.65c-7.49,9.74-16.47,26.6-3.34,35.96c12.59,8.97,33.87,1.81,47.43-0.56
			c21.92-3.83,43.75-8.24,65.3-13.78c41.77-10.74,82.84-25.89,119.31-49.23c62.25-39.84,112.69-110.63,107.38-187.33
			c-1.93-27.92-15.73-71.21-52.54-59.37c-18.08,5.81-32.52,21.37-45.65,34.37c-14.56,14.42-28.23,29.73-40.95,45.8
			c-49.33,62.33-84.36,135.84-101.99,213.33c-8.91,39.18-13.4,79.4-13.01,119.59c0.35,36.51,2.87,79.26,32.11,105.31
			c25.3,22.54,61.61,25.34,93.88,22.68c42.17-3.47,85.33-13.87,125.03-28.26c70.2-25.45,145.06-79.54,157.33-158.71
			c4.82-31.14-3.53-67.79-35.74-80.52c-34.32-13.56-73.12,5.69-102.49,22.65c-72.08,41.62-137.05,95.53-191.46,158.51
			c-12.96,15-25.32,30.52-37.05,46.5c-10.9,14.86-24.57,30.86-31.19,48.21c-3.76,9.84-5.8,25.32,6.52,29.97
			c7.75,2.93,16.71-1.03,24.05-3.29c11.05-3.4,22.04-6.98,32.96-10.76c81.82-28.31,159.97-67.16,231.96-115.26
			c34.37-22.96,67.36-48.02,98.64-75.05c24.06-20.79,53.71-50.56,41.93-85.61c-9.42-28.03-40.77-44.55-69-45.39
			c-39.57-1.18-75,23.73-105.88,45.4C501.92,503.63,503.42,506.23,505,505.12L505,505.12z"/>
	</g>
</g>
<g>
	<g>
		<path d="M700.75,1250.01c-6.38-6.59-8.72-15.76-10.35-24.52c-1.64-8.81-4.66-20.69,2.85-27.69c2.82-2.63,6.89-3.76,10.44-1.87
			c3.28,1.75,5.26,5.3,6.56,8.65c1.7,4.36,2.6,9.04,3.61,13.6c1.18,5.36,2.24,10.75,3.18,16.15c1.92,11,3.33,22.09,4.23,33.22
			c0.22,2.74,0.41,5.47,0.58,8.21c0.15,2.62,0.52,5.38,0.34,8c-0.07,1.04-0.35,1.78-1.49,1.89c-1.28,0.12-2.66-0.1-3.93-0.2
			c-2.61-0.19-5.22-0.45-7.83-0.78c-10.5-1.31-20.87-3.74-30.88-7.15c-4.73-1.62-9.5-3.36-13.97-5.61c-3.73-1.88-7.46-4.3-9.54-8.05
			c-3.97-7.17,0.82-15.49,6.96-19.6c8.53-5.71,19.51-3.65,28.69-0.82c2.54,0.78,5.05,1.66,7.56,2.55c1.82,0.64,2.61-2.25,0.8-2.89
			c-10.39-3.67-22.6-7.92-33.55-3.95c-7.84,2.84-15,10.47-14.92,19.2c0.08,10.18,9.9,15.27,18.08,18.64
			c10.77,4.44,22.03,7.67,33.51,9.62c5.68,0.97,11.42,1.63,17.17,1.98c2.47,0.15,4.98-0.11,5.96-2.74c0.87-2.33,0.31-5.26,0.18-7.67
			c-0.64-12.23-1.89-24.42-3.72-36.52c-0.91-5.99-1.96-11.95-3.16-17.88c-1.12-5.53-2.2-11.14-3.79-16.55
			c-2.25-7.65-7.66-17.27-17.19-14.92c-4.38,1.08-7.97,4.67-9.81,8.69c-2.35,5.17-2.04,11.01-1.27,16.5c1.38,9.8,3,20.4,8.22,28.99
			c1.24,2.04,2.7,3.94,4.36,5.65C699.97,1253.52,702.09,1251.4,700.75,1250.01L700.75,1250.01z"/>
	</g>
</g>
<g>
	<g>
		<path d="M936.99,951.6c5.81-22.22,11.62-44.43,17.44-66.65c2.32-8.87,4.09-20.23,12.81-25.21c3.61-2.06,8-2.5,11.61-0.2
			c3.06,1.95,4.87,5.4,5.8,8.81c1.3,4.79,0.71,9.61-0.4,14.38c-1.35,5.8-3.26,11.46-3.76,17.43c-0.14,1.69,2.55,2.02,2.95,0.4
			c1.98-8.13,11.02-13.96,19.27-11.94c8.15,1.99,13.78,11.27,11.7,19.42c-2.45,9.6-12.59,14.54-21.5,16.39
			c-5.86,1.21-11.85,1.51-17.78,2.23c-5.16,0.63-10.23,1.64-15.15,3.34c-10.52,3.64-20.07,9.97-26.61,19.07
			c-1.13,1.57,1.47,3.07,2.59,1.51c6.13-8.54,15.32-14.48,25.19-17.82c5.45-1.85,11.07-2.82,16.79-3.43
			c6.27-0.66,12.62-1.09,18.74-2.72c9.2-2.46,19.11-8.85,20.88-18.93c1.6-9.12-4.2-18.89-13.07-21.69
			c-9.98-3.15-21.48,3.73-23.93,13.77c0.98,0.13,1.96,0.27,2.95,0.4c0.85-10.28,6.35-20,4.52-30.49
			c-1.42-8.14-7.51-15.86-16.55-14.56c-10.53,1.52-15.33,12.04-17.84,21.14c-3.18,11.52-6.07,23.13-9.09,34.7
			c-3.47,13.28-6.95,26.56-10.42,39.85C933.61,952.67,936.5,953.46,936.99,951.6L936.99,951.6z"/>
	</g>
</g>
<g>
	<g>
		<path d="M227.18,1589.4c14.44,8.68,27.78,19.13,39.71,31.04c11.87,11.86,22.3,25.14,30.99,39.5c2.44,4.03,4.73,8.15,6.89,12.34
			c2.17,4.21,4.42,8.54,8.18,11.56c1.49,1.2,3.63-0.91,2.12-2.12c-3.36-2.7-5.39-6.47-7.34-10.23c-1.95-3.77-3.97-7.5-6.13-11.15
			c-4.28-7.25-9-14.24-14.12-20.91c-10.29-13.41-22.13-25.6-35.31-36.2c-7.45-5.99-15.29-11.48-23.48-16.4
			C227.04,1585.81,225.53,1588.4,227.18,1589.4L227.18,1589.4z"/>
	</g>
</g>
<g>
	<g>
		<path d="M285.15,1590.32c-5.41,27.03-15.26,53.11-29.11,76.96c-3.88,6.68-8.07,13.17-12.54,19.47c-1.12,1.58,1.48,3.08,2.59,1.51
			c16.03-22.55,28.31-47.74,36.25-74.24c2.26-7.54,4.15-15.18,5.7-22.89C288.42,1589.23,285.52,1588.42,285.15,1590.32
			L285.15,1590.32z"/>
	</g>
</g>
<g>
	<g>
		<path d="M309.92,1605.22c-1.77,9.13-2.91,18.98-0.51,28.1c2.28,8.66,8.72,15.89,17.98,16.8c9.32,0.92,18.84-4.74,22.31-13.44
			c3.62-9.07,0.59-20.17-6.44-26.76c-8.84-8.29-22.8-8.92-33.18-3.3c-1.7,0.92-0.19,3.51,1.51,2.59c8.37-4.53,19.22-4.52,27.18,0.92
			c7.21,4.92,10.99,14.61,8.89,23.11c-2.01,8.12-9.72,13.79-18.01,13.96c-8.21,0.17-14.5-5.64-16.91-13.18
			c-2.86-8.96-1.68-18.96,0.07-28.02C313.18,1604.13,310.29,1603.32,309.92,1605.22L309.92,1605.22z"/>
	</g>
</g>
<g>
	<g>
		<path d="M338.1,1585.45c4.91,17.95,15.02,34.31,28.53,47.07c6.75,6.37,14.35,11.88,22.55,16.22c4.1,2.17,8.36,4.06,12.73,5.64
			c4.55,1.65,9.44,3.31,14.34,3.15c4.9-0.16,9.49-2.5,10.91-7.44c1.12-3.91-0.11-8.39-4.17-9.9c-1.81-0.67-2.59,2.23-0.8,2.89
			c2.8,1.04,2.74,4.86,1.74,7.14c-1.73,3.97-6.47,4.6-10.32,4.2c-4.37-0.46-8.72-2.07-12.79-3.65c-3.98-1.53-7.84-3.36-11.58-5.42
			c-14.86-8.19-27.58-20.21-36.66-34.55c-5.13-8.11-9.06-16.91-11.59-26.16C340.49,1582.8,337.59,1583.59,338.1,1585.45
			L338.1,1585.45z"/>
	</g>
</g>
<g>
	<g>
		<path d="M401.74,1592.95c-1.3,22.34-5.39,44.48-12.16,65.8c-0.95,3-1.96,5.98-3.01,8.94c-0.45,1.28-0.84,2.62-1.44,3.84
			c-0.19,0.4-0.45,0.97-0.91,1.13c-0.04,0.02-0.08,0.03-0.12,0.05c0.2,0.03,0.22-0.01,0.06-0.09c-0.03-0.04-0.05-0.07-0.08-0.11
			c0.04,0.24-0.06,0.46-0.3,0.64c1.52-1.15,0.03-3.75-1.51-2.59c-1.92,1.45-1.17,4.29,1.08,4.99c2.63,0.82,4.21-1.94,4.98-3.96
			c2.3-6.02,4.27-12.19,6.07-18.37c3.65-12.54,6.38-25.34,8.18-38.28c1.01-7.3,1.74-14.64,2.17-22
			C404.85,1591.02,401.85,1591.03,401.74,1592.95L401.74,1592.95z"/>
	</g>
</g>
<g>
	<g>
		<path d="M428.48,1591.13c-3.36,9.14-7.23,19.86-3.69,29.53c2.69,7.35,9.77,14.17,18.12,13.08c6.72-0.87,11.15-6.7,12.31-13.07
			c1.3-7.17-1.03-14.08-6.39-19.01c-6.95-6.4-16.73-8.62-25.89-9.26c-1.93-0.13-1.92,2.87,0,3c7.28,0.5,14.83,2.07,20.98,6.19
			c5.39,3.61,8.86,9.07,8.67,15.65c-0.14,5.18-2.61,11.11-7.83,13c-6.96,2.52-13.57-2.91-16.45-8.89
			c-4.49-9.33-0.25-20.43,3.06-29.42C432.04,1590.11,429.14,1589.33,428.48,1591.13L428.48,1591.13z"/>
	</g>
</g>
<g>
	<g>
		<path d="M-154.5,299.5c1.93,0,1.93-3,0-3C-156.43,296.5-156.43,299.5-154.5,299.5L-154.5,299.5z"/>
	</g>
</g>
</svg>
